<svg xmlns="http://www.w3.org/2000/svg" viewBox="0 0 403.68 210.02"><title>lr_logo</title><rect width="179.09" height="196.96" style="fill:#4f98d3"/><polygon points="113.45 154.51 46.31 154.51 46.31 19.45 28.77 19.45 28.77 169.81 113.45 169.81 113.45 154.51" style="fill:#fff"/><path d="M355.54,256.49c0,18.94-13.24,29.77-35.78,29.77h-20l61.88,75.84H383l-50.88-62c25.44-2.23,40.83-19.63,40.83-43.6,0-28.06-18.91-44.81-50.88-44.81H299.8v15.25h20.63c22.54,0,35.11,10.77,35.11,29.56" transform="translate(-219.21 -192.24)" style="fill:#fff"/><polygon points="236.53 133.38 236.53 137.02 215.08 137.02 215.08 94.01 219.27 94.01 219.27 133.38 236.53 133.38" style="fill:#143b62"/><polygon points="244.92 94.01 244.92 120.82 244.92 137.02 241.1 137.02 241.1 120.52 241.1 94.01 244.92 94.01" style="fill:#143b62"/><path d="M484.7,301c-6.59,0-10.16,5.73-10.16,12.88s3.57,12.88,10.16,12.88,10.23-5.79,10.23-12.88S491.36,301,484.7,301m0,29c-9.92,0-14.35-7.76-14.35-16.14s4.43-16.14,14.35-16.14,14.42,7.7,14.42,16.14S494.68,330,484.7,330" transform="translate(-219.21 -192.24)" style="fill:#143b62"/><path d="M523,298.46h4l-12.32,35.42a18.13,18.13,0,0,1-3.45,6.41,6.34,6.34,0,0,1-4.8,2,10.59,10.59,0,0,1-3.58-.55V338.5a8.11,8.11,0,0,0,3,.56c3.2,0,4.38-2.71,5.55-6.72l.8-2.71-11-31.17h4.19L514,324.15h.06Z" transform="translate(-219.21 -192.24)" style="fill:#143b62"/><path d="M542.85,301c-7.27,0-9.12,6.9-9.12,12.88s1.85,12.88,9.12,12.88c6.78,0,9.12-7.27,9.12-12.88S549.63,301,542.85,301m12.94-14.73v43H552v-4.87h-.12c-2.1,3.89-5.17,5.61-9.61,5.61-8.44,0-12.69-7-12.69-16.14,0-9.37,3.94-16.15,12.69-16.15a10.46,10.46,0,0,1,9.61,5.92H552V286.25Z" transform="translate(-219.21 -192.24)" style="fill:#143b62"/><polygon points="345.7 94.01 349.46 94.01 346.26 106.25 342.5 106.25 345.7 94.01" style="fill:#143b62"/><path d="M577.32,330a22.58,22.58,0,0,1-8.57-1.47V324.7a18,18,0,0,0,8.32,2c3.64,0,6.85-2,6.85-5.55,0-7.27-14.79-6.16-14.79-15.09,0-6.11,4.93-8.38,10-8.38a18.56,18.56,0,0,1,7.39,1.47v3.33a16.25,16.25,0,0,0-7-1.54c-4.5,0-6.59,1.85-6.59,4.68,0,2.22,1.17,3.33,3.69,4.57,4.62,2.15,11.46,4.43,11.46,11S582,330,577.32,330" transform="translate(-219.21 -192.24)" style="fill:#143b62"/><path d="M442.94,349.83H438.5v15.4h4.56c5,0,10.73-1.91,10.73-7.94,0-7-5-7.46-10.85-7.46M461.3,389.2h-4.62l-6.1-14.36c-2.4-5.66-4.43-6-8.5-6H438.5V389.2h-4.19v-43H445.4c7.65,0,12.58,3.21,12.58,11.1,0,5.54-4.19,9-9.19,9.91v.13a5.86,5.86,0,0,1,3.39,2,9.7,9.7,0,0,1,1,1.54c.31.62.62,1.23.92,2Z" transform="translate(-219.21 -192.24)" style="fill:#143b62"/><path d="M484.49,371.15c0-4.93-2.15-10.23-7.82-10.23s-8.94,5.3-9.06,10.23Zm4.13,3.26h-21c0,7,3.52,12.27,10.11,12.27a20.75,20.75,0,0,0,8.93-2.35V388a25.09,25.09,0,0,1-9.24,2c-10.17,0-14-6.9-14-16.14,0-9.43,5.17-16.15,13-16.15,8.68,0,12.19,6.84,12.19,14.85Z" transform="translate(-219.21 -192.24)" style="fill:#143b62"/><path d="M507,360.92c-7.27,0-9.12,6.9-9.12,12.88s2.41,12.14,8.88,12.14c6.9,0,9.36-6.53,9.36-12.14,0-7.46-2.22-12.88-9.12-12.88m12.94-2.53v28.28c0,8.57-3.88,15.6-14.48,15.6a26,26,0,0,1-9.3-1.79v-3.76a22.8,22.8,0,0,0,9.36,2.28c9.8,0,10.66-7.15,10.66-15.84h-.12c-2.1,4.44-5.42,6-9.37,6-9.86,0-13-8.56-13-15.4,0-9.37,3.64-16.14,12.7-16.14,4.12,0,7.2,1,9.61,4.25h.12v-3.52Z" transform="translate(-219.21 -192.24)" style="fill:#143b62"/><path d="M531.56,389.2h-3.82V358.39h3.82Zm0-36.78h-3.82v-5.05h3.82Z" transform="translate(-219.21 -192.24)" style="fill:#143b62"/><path d="M546.21,389.94a22.38,22.38,0,0,1-8.56-1.48v-3.82a18,18,0,0,0,8.32,2c3.63,0,6.84-2,6.84-5.54,0-7.27-14.79-6.16-14.79-15.1,0-6.1,4.93-8.38,10-8.38a18.46,18.46,0,0,1,7.4,1.49v3.32a16.44,16.44,0,0,0-7-1.54c-4.49,0-6.59,1.85-6.59,4.69,0,2.21,1.17,3.32,3.7,4.55,4.61,2.16,11.46,4.44,11.46,11s-6.1,8.81-10.79,8.81" transform="translate(-219.21 -192.24)" style="fill:#143b62"/><path d="M575.46,389.08a13.3,13.3,0,0,1-4.56.86,7,7,0,0,1-4.38-1.29c-2.09-1.48-2.64-4.19-2.64-8.38V361.66H559v-3.27h4.93v-7.45l3.81-1.36v8.81h7v3.27h-7v19.9c0,3,1,5.12,4.13,5.12a8.79,8.79,0,0,0,3.64-.8Z" transform="translate(-219.21 -192.24)" style="fill:#143b62"/><path d="M598.33,371.15c0-4.93-2.16-10.23-7.83-10.23s-8.93,5.3-9,10.23Zm4.13,3.26h-21c0,7,3.51,12.27,10.1,12.27a20.79,20.79,0,0,0,8.94-2.35V388a25.19,25.19,0,0,1-9.25,2c-10.16,0-14-6.9-14-16.14,0-9.43,5.17-16.15,13-16.15,8.68,0,12.2,6.84,12.2,14.85Z" transform="translate(-219.21 -192.24)" style="fill:#143b62"/><path d="M622.89,362a9.36,9.36,0,0,0-2.78-.37c-6,0-7.64,6.78-7.64,12.32V389.2h-3.82V365.29a53.66,53.66,0,0,0-.25-6.9h3.83v5.92h.12c1.23-3.58,3.82-6.6,7.76-6.6a11.38,11.38,0,0,1,2.78.38Z" transform="translate(-219.21 -192.24)" style="fill:#143b62"/></svg>