<?xml version="1.0" encoding="UTF-8" standalone="no"?><!DOCTYPE svg PUBLIC "-//W3C//DTD SVG 1.1//EN" "http://www.w3.org/Graphics/SVG/1.1/DTD/svg11.dtd"><svg width="100%" height="100%" viewBox="0 0 589 154" version="1.1" xmlns="http://www.w3.org/2000/svg" xmlns:xlink="http://www.w3.org/1999/xlink" xml:space="preserve" xmlns:serif="http://www.serif.com/" style="fill-rule:evenodd;clip-rule:evenodd;stroke-linejoin:round;stroke-miterlimit:1.41421;"><g><g><path d="M18.219,53.509l0.255,0.028l0.372,-0.647l-2.265,-3.002c-4.572,-6.055 -10.252,-12.078 -16.581,-17.67l0,18.267c5.137,1.307 10.065,2.215 14.724,2.674c0,0 1.763,0.152 3.495,0.35Z" style="fill:#15a99c;"/><path d="M48.098,61.286l-5.152,-9.064c5.545,-10.325 14.274,-20.286 27.437,-31.312l4.346,7.643c-8.132,6.573 -15.399,13.96 -21.023,21.377l-2.273,2.997l0.369,0.65l0.258,-0.029c1.734,-0.195 3.504,-0.34 3.504,-0.34c8.852,-0.858 18.65,-3.257 29.126,-7.136l4.347,7.642c-16.282,5.704 -29.177,8.085 -40.939,7.572Zm36.555,18.043c-9.796,-3.643 -19.854,-6.127 -29.11,-7.185l-3.736,-0.429l-0.371,0.65l0.156,0.207c1.053,1.391 2.075,2.831 2.08,2.837c5.251,7.183 12.311,14.388 20.99,21.423l-4.361,7.633c-13.144,-11.047 -21.857,-21.027 -27.382,-31.358l5.169,-9.054c11.762,-0.498 24.658,1.91 40.926,7.639l-4.361,7.637Zm-39.315,34.594c-1.694,-10.318 -4.524,-20.285 -8.195,-28.841l-1.481,-3.458l-0.749,0l-0.101,0.24c-0.689,1.604 -1.431,3.202 -1.434,3.211c-3.632,8.121 -6.385,17.827 -8.189,28.852l-8.793,0c3.072,-16.89 7.418,-29.403 13.646,-39.331l10.429,-0.002c6.234,9.924 10.583,22.437 13.664,39.329l-8.797,0Zm-28.942,-102.56l8.793,0.002c1.804,11.022 4.557,20.729 8.189,28.855c0.002,0.004 0.745,1.605 1.434,3.21l0.104,0.238l0.746,-0.003l1.481,-3.455c3.671,-8.558 6.501,-18.525 8.198,-28.842l8.794,0.002c-3.081,16.893 -7.43,29.404 -13.664,39.327l-10.429,-0.004c-6.23,-9.924 -10.57,-22.438 -13.646,-39.33Zm-16.396,-11.149l0,20.647c13.12,11.041 21.82,21.014 27.338,31.34l-5.176,9.052c-6.829,0.292 -14.095,-0.447 -22.162,-2.216l0,7.156c8.066,-1.745 15.33,-2.462 22.169,-2.165l5.15,9.067c-5.53,10.281 -14.229,20.206 -27.319,31.182l0,20.798l176.611,-9.035l0,-106.789l-176.611,-9.037Z" style="fill:#15a99c;"/><path d="M16.565,75.366c0,0 1.026,-1.435 2.081,-2.828l0.158,-0.207l-0.37,-0.647l-3.74,0.42c-4.731,0.529 -9.679,1.457 -14.694,2.698l0,18.163c6.659,-5.806 12.235,-11.705 16.565,-17.599Z" style="fill:#15a99c;"/><path d="M55.564,53.208c0,0 -1.77,0.145 -3.504,0.34l-0.258,0.029l-0.369,-0.65l2.273,-2.997c5.624,-7.417 12.891,-14.804 21.023,-21.377l-4.346,-7.643c-13.163,11.026 -21.892,20.987 -27.437,31.312l5.152,9.064c11.762,0.513 24.657,-1.868 40.939,-7.572l-4.347,-7.642c-10.476,3.879 -20.274,6.278 -29.126,7.136Z" style="fill:#fff;fill-rule:nonzero;"/><path d="M0,92.965l0,11.312l0,-11.312Z" style="fill:#fff;fill-rule:nonzero;"/><path d="M0,66.193l0,8.609l0,-8.609Z" style="fill:#fff;fill-rule:nonzero;"/><path d="M27.319,73.095l-5.15,-9.067c-6.839,-0.297 -14.103,0.42 -22.169,2.165l0,8.609c5.015,-1.241 9.963,-2.169 14.694,-2.698l3.74,-0.42l0.37,0.647l-0.158,0.207c-1.055,1.393 -2.081,2.828 -2.081,2.828c-4.33,5.894 -9.906,11.793 -16.565,17.599l0,11.312c13.09,-10.976 21.789,-20.901 27.319,-31.182Z" style="fill:#fff;fill-rule:nonzero;"/><path d="M48.088,64.053l-5.169,9.054c5.525,10.331 14.238,20.311 27.382,31.358l4.361,-7.633c-8.679,-7.035 -15.739,-14.24 -20.99,-21.423c-0.005,-0.006 -1.027,-1.446 -2.08,-2.837l-0.156,-0.207l0.371,-0.65l3.736,0.429c9.256,1.058 19.314,3.542 29.11,7.185l4.361,-7.637c-16.268,-5.729 -29.164,-8.137 -40.926,-7.639Z" style="fill:#fff;fill-rule:nonzero;"/><path d="M0,20.861l0,11.357l0,-11.357Z" style="fill:#fff;fill-rule:nonzero;"/><path d="M0,50.485l0,8.552l0,-8.552Z" style="fill:#fff;fill-rule:nonzero;"/><path d="M22.162,61.253l5.176,-9.052c-5.518,-10.326 -14.218,-20.299 -27.338,-31.34l0,11.357c6.329,5.592 12.009,11.615 16.581,17.67l2.265,3.002l-0.372,0.647l-0.255,-0.028c-1.732,-0.198 -3.495,-0.35 -3.495,-0.35c-4.659,-0.459 -9.587,-1.367 -14.724,-2.674l0,8.552c8.067,1.769 15.333,2.508 22.162,2.216Z" style="fill:#fff;fill-rule:nonzero;"/><path d="M30.042,74.596c-6.228,9.928 -10.574,22.441 -13.646,39.331l8.793,0c1.804,-11.025 4.557,-20.731 8.189,-28.852c0.003,-0.009 0.745,-1.607 1.434,-3.211l0.101,-0.24l0.749,0l1.481,3.458c3.671,8.556 6.501,18.523 8.195,28.841l8.797,0c-3.081,-16.892 -7.43,-29.405 -13.664,-39.329l-10.429,0.002Z" style="fill:#fff;fill-rule:nonzero;"/><path d="M40.471,50.697c6.234,-9.923 10.583,-22.434 13.664,-39.327l-8.794,-0.002c-1.697,10.317 -4.527,20.284 -8.198,28.842l-1.481,3.455l-0.746,0.003l-0.104,-0.238c-0.689,-1.605 -1.432,-3.206 -1.434,-3.21c-3.632,-8.126 -6.385,-17.833 -8.189,-28.855l-8.793,-0.002c3.076,16.892 7.416,29.406 13.646,39.33l10.429,0.004Z" style="fill:#fff;fill-rule:nonzero;"/><path d="M220.068,132.811c-14.399,-22.231 -21.596,-49.757 -25.302,-73.894l22.126,0c2.436,14.716 6.88,36.524 13.127,52.827c0,0 0.951,2.329 1.694,4.233l0.424,0c0.741,-1.904 1.587,-4.233 1.587,-4.233c6.354,-16.303 10.797,-38.111 13.127,-52.827l22.231,0c-3.811,24.137 -11.01,51.663 -25.404,73.894l-23.61,0Z" style="fill:#15a99c;fill-rule:nonzero;"/><path d="M271.087,133.869c-6.245,0 -11.115,-4.869 -11.115,-11.116c0,-6.563 4.656,-11.221 11.115,-11.221c6.562,0 11.222,4.658 11.222,11.221c0,6.247 -4.871,11.116 -11.222,11.116Z" style="fill:#15a99c;fill-rule:nonzero;"/><path d="M355.46,92.053l0,40.97l-8.365,0l-3.492,-4.34c-6.989,3.598 -14.715,5.186 -22.55,5.186c-21.702,0 -36.418,-14.079 -36.418,-38.005c0,-23.926 14.716,-38.005 36.418,-38.005c16.621,0 29.852,7.939 33.35,24.56l-22.975,0c-1.165,-5.611 -5.081,-8.256 -10.375,-8.256c-9,0 -14.291,7.515 -14.291,21.701c0,14.186 5.291,21.702 14.291,21.702c4.234,0 8.364,-1.164 12.491,-3.493l0,-9.211l-10.796,0l0,-12.809l32.712,0Z" style="fill:#15a99c;fill-rule:nonzero;"/><path d="M400.974,77.232l0,17.256c-2.33,-0.529 -6.779,-1.589 -9.951,-1.589c-5.294,0 -8.47,2.647 -8.47,8.682l0,31.23l-20.751,0l0,-56.003l7.832,0l6.779,8.681c3.386,-5.505 8.786,-9.422 15.88,-9.422c3.6,0 6.14,0.529 8.681,1.165Z" style="fill:#15a99c;fill-rule:nonzero;"/><path d="M442.891,104.968c0,-5.929 -1.379,-14.185 -8.892,-14.185c-7.624,0 -9,8.256 -9,14.185c0,5.929 1.376,14.187 9,14.187c7.513,0 8.892,-8.258 8.892,-14.187Zm20.75,0c0,18.21 -11.649,28.901 -29.642,28.901c-17.999,0 -29.75,-10.691 -29.75,-28.901c0,-18.209 11.751,-28.901 29.75,-28.901c17.891,0 29.642,10.692 29.642,28.901Z" style="fill:#15a99c;fill-rule:nonzero;"/><path d="M468.609,110.05l0,-32.924l20.75,0l0,31.018c0,8.046 2.011,11.011 6.989,11.011c4.867,0 7.832,-4.658 7.832,-9.74l0,-32.289l20.751,0l0,55.897l-7.305,0l-6.777,-8.152c-5.291,6.034 -11.858,8.998 -19.798,8.998c-15.454,0 -22.442,-10.586 -22.442,-23.819Z" style="fill:#15a99c;fill-rule:nonzero;"/><path d="M568.009,104.968c0,-5.294 -0.951,-14.185 -8.045,-14.185c-7.094,0 -8.154,8.891 -8.154,14.185c0,5.293 1.06,14.187 8.154,14.187c7.094,0 8.045,-8.894 8.045,-14.187Zm20.751,0c0,14.504 -6.354,28.901 -22.87,28.901c-4.972,0 -9.74,-1.376 -13.55,-4.551l-0.422,0l0,24.031l-20.75,0l0,-76.541l7.305,0l6.986,8.575c4.448,-6.457 11.329,-9.316 18.95,-9.316c17.043,0 24.351,13.444 24.351,28.901Z" style="fill:#15a99c;fill-rule:nonzero;"/></g></g></svg>